<svg xmlns="http://www.w3.org/2000/svg" xmlns:xlink="http://www.w3.org/1999/xlink" width="1584" zoomAndPan="magnify" viewBox="0 0 1188 296.999993" height="396" preserveAspectRatio="xMidYMid meet" version="1.0"><defs><g/><clipPath id="6b639788ef"><path d="M 486 80 L 602 80 L 602 247.71875 L 486 247.71875 Z M 486 80 " clip-rule="nonzero"/></clipPath><clipPath id="2f7a35e5b6"><path d="M 1042 80 L 1151.398438 80 L 1151.398438 201 L 1042 201 Z M 1042 80 " clip-rule="nonzero"/></clipPath><clipPath id="7124471cf7"><rect x="0" width="1152" y="0" height="248"/></clipPath></defs><g transform="matrix(1, 0, 0, 1, 21, 23)"><g clip-path="url(#7124471cf7)"><g fill="#282828" fill-opacity="1"><g transform="translate(0.949193, 195.631682)"><g><path d="M 80.367188 5.980469 C 65.617188 5.980469 52.640625 3.285156 41.441406 -2.105469 C 30.113281 -7.554688 21.394531 -15.253906 15.28125 -25.203125 C 9.183594 -35.132812 6.132812 -46.519531 6.132812 -59.367188 C 6.132812 -76.082031 10.011719 -91.148438 17.765625 -104.558594 C 25.53125 -118 36.410156 -128.492188 50.394531 -136.046875 C 64.324219 -143.566406 80.171875 -147.328125 97.933594 -147.328125 C 111.449219 -147.328125 123.46875 -144.910156 133.980469 -140.074219 C 144.679688 -135.152344 152.683594 -128.167969 158 -119.117188 L 159.386719 -116.757812 L 125.597656 -89.824219 L 123.726562 -92.832031 C 117.476562 -102.878906 108.003906 -107.902344 95.308594 -107.902344 C 86.886719 -107.902344 79.496094 -105.9375 73.140625 -102.011719 C 66.773438 -98.082031 61.804688 -92.640625 58.234375 -85.6875 C 54.628906 -78.667969 52.828125 -70.769531 52.828125 -61.992188 C 52.828125 -53.347656 55.589844 -46.441406 61.117188 -41.277344 C 66.703125 -36.054688 74.398438 -33.445312 84.203125 -33.445312 C 96.710938 -33.445312 107.429688 -38.535156 116.359375 -48.722656 L 118.558594 -51.234375 L 146.632812 -23.644531 L 144.789062 -21.414062 C 136.773438 -11.710938 127.402344 -4.707031 116.675781 -0.402344 C 106.066406 3.851562 93.964844 5.980469 80.367188 5.980469 Z M 80.367188 -0.328125 C 93.152344 -0.328125 104.472656 -2.304688 114.324219 -6.261719 C 124.058594 -10.167969 132.589844 -16.558594 139.921875 -25.433594 L 142.355469 -23.421875 L 140.144531 -21.171875 L 116.519531 -44.394531 L 118.730469 -46.644531 L 121.101562 -44.566406 C 110.917969 -32.945312 98.617188 -27.132812 84.203125 -27.132812 C 72.738281 -27.132812 63.605469 -30.3125 56.808594 -36.667969 C 49.949219 -43.078125 46.519531 -51.519531 46.519531 -61.992188 C 46.519531 -71.789062 48.550781 -80.648438 52.621094 -88.570312 C 56.726562 -96.5625 62.460938 -102.832031 69.824219 -107.382812 C 77.195312 -111.9375 85.691406 -114.210938 95.308594 -114.210938 C 110.34375 -114.210938 121.601562 -108.195312 129.082031 -96.167969 L 126.402344 -94.5 L 124.4375 -96.96875 L 153.3125 -119.984375 L 155.277344 -117.519531 L 152.558594 -115.921875 C 147.910156 -123.832031 140.839844 -129.972656 131.34375 -134.339844 C 121.667969 -138.792969 110.53125 -141.019531 97.933594 -141.019531 C 81.234375 -141.019531 66.386719 -137.507812 53.394531 -130.492188 C 40.457031 -123.507812 30.398438 -113.808594 23.226562 -101.402344 C 16.039062 -88.96875 12.445312 -74.953125 12.445312 -59.367188 C 12.445312 -47.710938 15.183594 -37.421875 20.660156 -28.507812 C 26.125 -19.609375 33.964844 -12.703125 44.175781 -7.789062 C 54.511719 -2.816406 66.574219 -0.328125 80.367188 -0.328125 Z M 80.367188 -0.328125 "/></g></g></g><g fill="#282828" fill-opacity="1"><g transform="translate(149.965696, 195.631682)"><g><path d="M 91.671875 -114.414062 C 104.320312 -114.414062 114.574219 -110.917969 122.441406 -103.925781 C 130.417969 -96.835938 134.40625 -86.761719 134.40625 -73.703125 C 134.40625 -69.03125 133.910156 -64.433594 132.917969 -59.902344 L 120.308594 3.15625 L 75.511719 3.15625 L 87.578125 -57.609375 L 87.59375 -57.664062 C 88.074219 -59.714844 88.316406 -61.898438 88.316406 -64.210938 C 88.316406 -68.160156 87.378906 -71.039062 85.5 -72.839844 C 83.585938 -74.675781 80.527344 -75.59375 76.328125 -75.59375 C 70.4375 -75.59375 65.644531 -73.832031 61.945312 -70.308594 C 58.109375 -66.648438 55.382812 -61.035156 53.769531 -53.457031 L 42.363281 3.15625 L -2.433594 3.15625 L 28.710938 -152.980469 L 73.511719 -152.980469 L 62.863281 -99.738281 L 59.769531 -100.355469 L 57.824219 -102.839844 C 67.683594 -110.554688 78.96875 -114.414062 91.671875 -114.414062 Z M 91.671875 -108.105469 C 80.417969 -108.105469 70.429688 -104.695312 61.714844 -97.871094 L 55.003906 -92.621094 L 66.570312 -150.445312 L 69.664062 -149.828125 L 69.664062 -146.671875 L 31.296875 -146.671875 L 31.296875 -149.828125 L 34.390625 -149.210938 L 4.507812 0.617188 L 1.414062 0 L 1.414062 -3.15625 L 39.777344 -3.15625 L 39.777344 0 L 36.6875 -0.625 L 47.597656 -54.773438 C 49.480469 -63.621094 52.8125 -70.320312 57.59375 -74.875 C 62.507812 -79.5625 68.753906 -81.90625 76.328125 -81.90625 C 82.222656 -81.90625 86.734375 -80.402344 89.871094 -77.390625 C 93.039062 -74.347656 94.625 -69.953125 94.625 -64.210938 C 94.625 -61.410156 94.328125 -58.746094 93.734375 -56.21875 L 90.664062 -56.941406 L 93.757812 -56.328125 L 82.449219 0.613281 L 79.355469 0 L 79.355469 -3.15625 L 117.722656 -3.15625 L 117.722656 0 L 114.628906 -0.617188 L 126.753906 -61.25 C 127.648438 -65.335938 128.09375 -69.488281 128.09375 -73.703125 C 128.09375 -84.871094 124.8125 -93.375 118.25 -99.210938 C 111.578125 -105.140625 102.71875 -108.105469 91.671875 -108.105469 Z M 91.671875 -108.105469 "/></g></g></g><g fill="#282828" fill-opacity="1"><g transform="translate(290.50156, 195.631682)"><g><path d="M 38.972656 5.175781 C 29.265625 5.175781 21.273438 1.585938 14.992188 -5.59375 C 8.816406 -12.652344 5.730469 -23.441406 5.730469 -37.960938 C 5.730469 -52.492188 7.988281 -65.558594 12.507812 -77.167969 C 17.082031 -88.917969 23.480469 -98.199219 31.710938 -105.007812 C 40.101562 -111.953125 49.789062 -115.425781 60.777344 -115.425781 C 68.691406 -115.425781 74.828125 -113.554688 79.1875 -109.820312 C 83.242188 -106.34375 86.710938 -102.015625 89.585938 -96.839844 L 86.828125 -95.308594 L 86.828125 -98.460938 L 87.632812 -98.460938 L 87.632812 -95.308594 L 84.8125 -96.71875 C 85.921875 -98.9375 87.371094 -101.5625 89.160156 -104.585938 C 91.042969 -107.777344 93.023438 -110.40625 95.097656 -112.480469 L 96.019531 -113.40625 L 127.613281 -113.40625 L 125.152344 -108.769531 C 122.910156 -104.550781 120.160156 -98.515625 116.898438 -90.664062 C 113.675781 -82.90625 111.144531 -74.613281 109.300781 -65.789062 L 102.636719 -34.28125 C 102.277344 -32.488281 102.097656 -30.957031 102.097656 -29.683594 C 102.097656 -28.359375 102.316406 -27.464844 102.757812 -26.996094 C 103.144531 -26.582031 103.890625 -26.375 105 -26.375 C 105.847656 -26.375 106.761719 -26.484375 107.75 -26.703125 C 108.855469 -26.949219 109.757812 -27.191406 110.464844 -27.425781 L 114.617188 -28.808594 L 114.617188 1.023438 L 112.765625 1.863281 C 111.101562 2.621094 108.753906 3.359375 105.730469 4.078125 C 102.664062 4.808594 99.121094 5.175781 95.105469 5.175781 C 88.320312 5.175781 82.585938 3.742188 77.910156 0.871094 C 73.007812 -2.128906 69.710938 -6.941406 68.019531 -13.554688 L 71.078125 -14.335938 L 71.078125 -11.179688 L 70.269531 -11.179688 L 70.269531 -14.335938 L 72.679688 -12.300781 C 68.875 -7.789062 64.539062 -3.808594 59.675781 -0.355469 C 54.488281 3.332031 47.585938 5.175781 38.972656 5.175781 Z M 38.972656 -1.136719 C 46.242188 -1.136719 51.925781 -2.589844 56.023438 -5.5 C 60.449219 -8.644531 64.394531 -12.265625 67.859375 -16.371094 L 68.804688 -17.492188 L 73.527344 -17.492188 L 74.132812 -15.117188 C 75.402344 -10.15625 77.761719 -6.621094 81.207031 -4.507812 C 84.875 -2.257812 89.507812 -1.136719 95.105469 -1.136719 C 98.628906 -1.136719 101.683594 -1.445312 104.269531 -2.058594 C 106.898438 -2.6875 108.859375 -3.292969 110.15625 -3.882812 L 111.460938 -1.007812 L 108.304688 -1.007812 L 108.304688 -24.433594 L 111.460938 -24.433594 L 112.460938 -21.441406 C 111.546875 -21.136719 110.433594 -20.835938 109.117188 -20.546875 C 107.679688 -20.226562 106.308594 -20.066406 105 -20.066406 C 102.070312 -20.066406 99.789062 -20.9375 98.15625 -22.679688 C 96.578125 -24.363281 95.789062 -26.695312 95.789062 -29.683594 C 95.789062 -31.371094 96.011719 -33.339844 96.460938 -35.585938 L 103.125 -67.078125 C 105.046875 -76.289062 107.699219 -84.960938 111.070312 -93.085938 C 114.40625 -101.121094 117.242188 -107.335938 119.578125 -111.730469 L 122.367188 -110.25 L 122.367188 -107.09375 L 97.328125 -107.09375 L 97.328125 -110.25 L 99.558594 -108.019531 C 97.863281 -106.324219 96.207031 -104.109375 94.589844 -101.375 C 92.878906 -98.476562 91.5 -95.984375 90.457031 -93.898438 L 89.585938 -92.152344 L 84.96875 -92.152344 L 84.070312 -93.777344 C 81.558594 -98.292969 78.5625 -102.042969 75.082031 -105.027344 C 71.902344 -107.753906 67.136719 -109.113281 60.777344 -109.113281 C 51.304688 -109.113281 42.957031 -106.125 35.734375 -100.144531 C 28.347656 -94.03125 22.5625 -85.609375 18.386719 -74.878906 C 14.15625 -64.007812 12.039062 -51.703125 12.039062 -37.960938 C 12.039062 -25.019531 14.605469 -15.617188 19.738281 -9.75 C 24.765625 -4.007812 31.175781 -1.136719 38.972656 -1.136719 Z M 52.097656 -25.164062 C 56.425781 -25.164062 60.058594 -27.132812 62.996094 -31.066406 C 66.324219 -35.523438 68.945312 -41.261719 70.859375 -48.28125 L 70.875 -48.332031 L 70.886719 -48.378906 C 71.925781 -51.75 72.804688 -55.523438 73.519531 -59.699219 C 74.230469 -63.828125 74.585938 -67.554688 74.585938 -70.875 C 74.585938 -75.492188 73.714844 -79.121094 71.976562 -81.757812 C 70.515625 -83.976562 68.195312 -85.085938 65.019531 -85.085938 C 61.917969 -85.085938 59.085938 -83.9375 56.519531 -81.648438 C 53.667969 -79.097656 51.1875 -75.652344 49.078125 -71.3125 C 46.894531 -66.816406 45.191406 -61.894531 43.964844 -56.542969 C 42.738281 -51.1875 42.125 -45.933594 42.125 -40.789062 C 42.125 -35.191406 43.03125 -31.097656 44.839844 -28.511719 C 46.398438 -26.28125 48.816406 -25.164062 52.097656 -25.164062 Z M 52.097656 -18.855469 C 46.625 -18.855469 42.480469 -20.867188 39.667969 -24.898438 C 37.097656 -28.570312 35.816406 -33.867188 35.816406 -40.789062 C 35.816406 -46.410156 36.480469 -52.132812 37.8125 -57.949219 C 39.144531 -63.769531 41.007812 -69.144531 43.402344 -74.070312 C 45.871094 -79.15625 48.84375 -83.25 52.316406 -86.351562 C 56.078125 -89.714844 60.3125 -91.394531 65.019531 -91.394531 C 70.460938 -91.394531 74.535156 -89.339844 77.246094 -85.230469 C 79.679688 -81.542969 80.894531 -76.757812 80.894531 -70.875 C 80.894531 -67.195312 80.511719 -63.113281 79.738281 -58.628906 C 78.976562 -54.1875 78.035156 -50.152344 76.917969 -46.523438 L 73.902344 -47.453125 L 76.949219 -46.621094 C 74.824219 -38.832031 71.859375 -32.390625 68.050781 -27.289062 C 63.855469 -21.667969 58.535156 -18.855469 52.097656 -18.855469 Z M 52.097656 -18.855469 "/></g></g></g><g fill="#282828" fill-opacity="1"><g transform="translate(412.864705, 195.631682)"><g><path d="M 38.164062 5.175781 C 28.738281 5.175781 21.160156 3.128906 15.429688 -0.964844 C 9.367188 -5.296875 6.335938 -12.78125 6.335938 -23.421875 C 6.335938 -25.160156 6.476562 -27.238281 6.761719 -29.648438 C 7.042969 -32.046875 7.667969 -35.386719 8.632812 -39.667969 L 24.300781 -113.40625 L 60.425781 -113.40625 L 44.28125 -36.503906 C 43.515625 -32.945312 43.136719 -30.46875 43.136719 -29.078125 C 43.136719 -27.707031 43.464844 -26.746094 44.121094 -26.199219 C 44.949219 -25.511719 46.394531 -25.164062 48.460938 -25.164062 C 50.894531 -25.164062 53.199219 -25.4375 55.371094 -25.980469 C 57.699219 -26.5625 60.371094 -27.375 63.378906 -28.421875 L 67.570312 -29.878906 L 67.570312 -1.242188 L 65.773438 -0.382812 C 62.464844 1.199219 58.476562 2.519531 53.804688 3.582031 C 49.132812 4.644531 43.917969 5.175781 38.164062 5.175781 Z M 38.164062 -1.136719 C 43.445312 -1.136719 48.195312 -1.613281 52.40625 -2.570312 C 56.621094 -3.527344 60.167969 -4.699219 63.050781 -6.078125 L 64.414062 -3.230469 L 61.257812 -3.230469 L 61.257812 -25.441406 L 64.414062 -25.441406 L 65.449219 -22.460938 C 62.265625 -21.355469 59.414062 -20.484375 56.898438 -19.855469 C 54.226562 -19.1875 51.414062 -18.855469 48.460938 -18.855469 C 44.875 -18.855469 42.078125 -19.6875 40.082031 -21.351562 C 37.910156 -23.160156 36.824219 -25.734375 36.824219 -29.078125 C 36.824219 -30.914062 37.253906 -33.824219 38.105469 -37.800781 L 53.449219 -110.898438 L 56.539062 -110.25 L 56.539062 -107.09375 L 26.855469 -107.09375 L 26.855469 -110.25 L 29.941406 -109.59375 L 14.789062 -38.277344 C 13.871094 -34.210938 13.285156 -31.089844 13.027344 -28.910156 C 12.773438 -26.746094 12.644531 -24.914062 12.644531 -23.421875 C 12.644531 -14.949219 14.796875 -9.171875 19.097656 -6.101562 C 23.734375 -2.789062 30.085938 -1.136719 38.164062 -1.136719 Z M 38.164062 -1.136719 "/></g></g></g><g clip-path="url(#6b639788ef)"><g fill="#282828" fill-opacity="1"><g transform="translate(486.969131, 195.631682)"><g><path d="M 53.25 47.808594 L 77.078125 -65.066406 C 78.109375 -69.578125 78.625 -73.265625 78.625 -76.125 C 78.625 -79.367188 77.996094 -81.699219 76.738281 -83.121094 C 75.582031 -84.429688 73.695312 -85.085938 71.078125 -85.085938 C 67.417969 -85.085938 64.113281 -83.503906 61.171875 -80.335938 C 57.867188 -76.785156 54.976562 -71.953125 52.496094 -65.851562 C 49.9375 -59.550781 47.800781 -52.582031 46.089844 -44.945312 L 35.871094 3.15625 L -0.261719 3.15625 L 24.503906 -113.40625 L 52.953125 -113.40625 L 50.589844 -89.542969 L 47.453125 -89.855469 L 47.453125 -93.011719 L 48.257812 -93.011719 L 48.257812 -89.855469 L 45.59375 -91.542969 C 49.980469 -98.476562 55.195312 -104.148438 61.242188 -108.558594 C 67.515625 -113.136719 74.832031 -115.425781 83.191406 -115.425781 C 93.597656 -115.425781 101.507812 -112.1875 106.917969 -105.710938 C 112.183594 -99.402344 114.820312 -91.023438 114.820312 -80.566406 C 114.820312 -75.5 114.054688 -69.359375 112.527344 -62.144531 L 88.578125 51.617188 L 52.445312 51.617188 Z M 59.421875 49.113281 L 56.335938 48.460938 L 56.335938 45.304688 L 86.019531 45.304688 L 86.019531 48.460938 L 82.933594 47.8125 L 106.355469 -63.449219 C 107.789062 -70.234375 108.507812 -75.941406 108.507812 -80.566406 C 108.507812 -89.496094 106.363281 -96.527344 102.074219 -101.664062 C 97.925781 -106.632812 91.632812 -109.113281 83.191406 -109.113281 C 76.203125 -109.113281 70.128906 -107.230469 64.960938 -103.460938 C 59.5625 -99.523438 54.882812 -94.425781 50.925781 -88.167969 L 49.996094 -86.699219 L 43.96875 -86.699219 L 46.332031 -110.5625 L 49.472656 -110.25 L 49.472656 -107.09375 L 27.058594 -107.09375 L 27.058594 -110.25 L 30.144531 -109.59375 L 6.722656 0.65625 L 3.632812 0 L 3.632812 -3.15625 L 33.316406 -3.15625 L 33.316406 0 L 30.230469 -0.65625 L 39.929688 -46.324219 C 41.71875 -54.300781 43.957031 -61.601562 46.648438 -68.226562 C 49.417969 -75.046875 52.71875 -80.515625 56.550781 -84.632812 C 60.742188 -89.140625 65.582031 -91.394531 71.078125 -91.394531 C 75.59375 -91.394531 79.054688 -90.03125 81.46875 -87.300781 C 83.777344 -84.683594 84.933594 -80.960938 84.933594 -76.125 C 84.933594 -72.792969 84.371094 -68.671875 83.25 -63.761719 Z M 59.421875 49.113281 "/></g></g></g></g><g fill="#282828" fill-opacity="1"><g transform="translate(608.928438, 195.631682)"><g><path d="M 1.816406 44.144531 C -9.96875 44.144531 -19.082031 42.097656 -25.519531 38 L -28.007812 36.414062 L -10.136719 3.613281 L -7.230469 5.726562 C -4.824219 7.480469 -1.941406 8.355469 1.414062 8.355469 C 4.226562 8.355469 6.640625 7.421875 8.664062 5.558594 C 10.804688 3.582031 12.339844 0.488281 13.277344 -3.714844 L 34.464844 -109.65625 C 37.433594 -124.648438 43.609375 -136.085938 52.996094 -143.964844 C 62.398438 -151.859375 74.820312 -155.808594 90.257812 -155.808594 C 95.605469 -155.808594 100.675781 -155.28125 105.476562 -154.21875 C 110.441406 -153.125 114.5 -151.527344 117.652344 -149.421875 L 120.039062 -147.832031 L 102.503906 -115.191406 L 99.617188 -117.113281 C 96.914062 -118.914062 93.929688 -119.816406 90.664062 -119.816406 C 87.699219 -119.816406 85.203125 -118.90625 83.179688 -117.089844 C 81.101562 -115.226562 79.722656 -112.234375 79.035156 -108.117188 L 79.027344 -108.066406 L 57.816406 -1.804688 C 54.847656 13.3125 48.808594 24.746094 39.703125 32.488281 C 30.566406 40.261719 17.9375 44.144531 1.816406 44.144531 Z M 1.816406 37.835938 C 16.390625 37.835938 27.65625 34.453125 35.613281 27.683594 C 43.601562 20.890625 48.941406 10.648438 51.628906 -3.039062 L 72.828125 -109.253906 L 75.921875 -108.632812 L 72.8125 -109.152344 C 73.738281 -114.726562 75.792969 -118.9375 78.964844 -121.785156 C 82.1875 -124.679688 86.089844 -126.125 90.664062 -126.125 C 95.203125 -126.125 99.355469 -124.871094 103.117188 -122.367188 L 101.367188 -119.742188 L 98.585938 -121.234375 L 113.125 -148.292969 L 115.902344 -146.796875 L 114.152344 -144.171875 C 111.65625 -145.839844 108.308594 -147.132812 104.117188 -148.058594 C 99.765625 -149.019531 95.144531 -149.5 90.257812 -149.5 C 76.351562 -149.5 65.285156 -146.042969 57.054688 -139.132812 C 48.800781 -132.203125 43.335938 -121.964844 40.652344 -108.417969 L 19.4375 -2.34375 C 18.214844 3.144531 16.050781 7.324219 12.941406 10.191406 C 9.714844 13.175781 5.871094 14.664062 1.414062 14.664062 C -3.308594 14.664062 -7.425781 13.386719 -10.941406 10.832031 L -9.085938 8.277344 L -6.316406 9.789062 L -21.054688 36.847656 L -23.828125 35.335938 L -22.132812 32.675781 C -16.726562 36.113281 -8.742188 37.835938 1.816406 37.835938 Z M 1.816406 37.835938 "/></g></g></g><g fill="#282828" fill-opacity="1"><g transform="translate(700.801757, 195.631682)"><g><path d="M 51.085938 5.175781 C 42.347656 5.175781 34.546875 3.332031 27.6875 -0.351562 C 20.753906 -4.070312 15.355469 -9.359375 11.488281 -16.21875 C 7.648438 -23.027344 5.730469 -31.082031 5.730469 -40.382812 C 5.730469 -50.363281 6.980469 -59.835938 9.480469 -68.796875 C 12.003906 -77.84375 15.800781 -85.851562 20.871094 -92.820312 C 26.011719 -99.890625 32.472656 -105.421875 40.253906 -109.421875 C 48.042969 -113.421875 57.105469 -115.425781 67.441406 -115.425781 C 81.113281 -115.425781 92.027344 -111.273438 100.183594 -102.972656 C 108.324219 -94.683594 112.394531 -83.246094 112.394531 -68.652344 C 112.394531 -59.085938 111.214844 -49.929688 108.855469 -41.179688 C 106.464844 -32.324219 102.765625 -24.441406 97.761719 -17.535156 C 92.691406 -10.535156 86.269531 -5.003906 78.496094 -0.941406 C 70.703125 3.136719 61.566406 5.175781 51.085938 5.175781 Z M 51.085938 -1.136719 C 60.53125 -1.136719 68.691406 -2.933594 75.570312 -6.53125 C 82.46875 -10.140625 88.164062 -15.039062 92.652344 -21.234375 C 97.203125 -27.519531 100.574219 -34.714844 102.761719 -42.820312 C 104.976562 -51.035156 106.085938 -59.644531 106.085938 -68.652344 C 106.085938 -81.523438 102.617188 -91.488281 95.683594 -98.546875 C 88.761719 -105.59375 79.347656 -109.113281 67.441406 -109.113281 C 58.125 -109.113281 50.023438 -107.347656 43.140625 -103.808594 C 36.246094 -100.269531 30.527344 -95.371094 25.976562 -89.109375 C 21.351562 -82.753906 17.878906 -75.417969 15.558594 -67.097656 C 13.210938 -58.695312 12.039062 -49.789062 12.039062 -40.382812 C 12.039062 -32.1875 13.6875 -25.164062 16.984375 -19.320312 C 20.25 -13.523438 24.8125 -9.054688 30.671875 -5.910156 C 36.597656 -2.726562 43.402344 -1.136719 51.085938 -1.136719 Z M 53.507812 -25.367188 C 58.066406 -25.367188 61.949219 -27.222656 65.15625 -30.9375 C 68.6875 -35.027344 71.402344 -40.386719 73.292969 -47.007812 C 75.230469 -53.789062 76.199219 -61.007812 76.199219 -68.652344 C 76.199219 -73.621094 75.292969 -77.714844 73.476562 -80.9375 C 71.996094 -83.566406 69.242188 -84.882812 65.222656 -84.882812 C 61.585938 -84.882812 58.386719 -83.640625 55.621094 -81.148438 C 52.585938 -78.421875 50.085938 -74.839844 48.113281 -70.402344 C 46.058594 -65.773438 44.511719 -60.816406 43.480469 -55.53125 C 42.441406 -50.210938 41.925781 -45.160156 41.925781 -40.382812 C 41.925781 -35.074219 42.917969 -31.191406 44.90625 -28.742188 C 46.730469 -26.492188 49.597656 -25.367188 53.507812 -25.367188 Z M 53.507812 -19.054688 C 47.59375 -19.054688 43.09375 -20.960938 40.003906 -24.765625 C 37.078125 -28.375 35.613281 -33.582031 35.613281 -40.382812 C 35.613281 -45.570312 36.171875 -51.019531 37.289062 -56.738281 C 38.410156 -62.492188 40.097656 -67.898438 42.347656 -72.964844 C 44.683594 -78.21875 47.699219 -82.511719 51.398438 -85.839844 C 55.363281 -89.410156 59.972656 -91.195312 65.222656 -91.195312 C 71.699219 -91.195312 76.285156 -88.808594 78.972656 -84.035156 C 81.332031 -79.851562 82.511719 -74.726562 82.511719 -68.652344 C 82.511719 -60.417969 81.460938 -52.625 79.359375 -45.273438 C 77.214844 -37.757812 74.070312 -31.605469 69.929688 -26.8125 C 65.464844 -21.640625 59.992188 -19.054688 53.507812 -19.054688 Z M 53.507812 -19.054688 "/></g></g></g><g fill="#282828" fill-opacity="1"><g transform="translate(818.924575, 195.631682)"><g><path d="M 87.632812 5.175781 C 78.855469 5.175781 72.230469 2.550781 67.765625 -2.699219 C 63.539062 -7.667969 60.710938 -14.886719 59.273438 -24.363281 L 56.445312 -44.179688 C 55.890625 -47.769531 55.511719 -51.945312 55.304688 -56.703125 C 55.105469 -61.300781 54.871094 -65.050781 54.609375 -67.964844 L 57.75 -68.25 L 60.597656 -66.890625 C 59.148438 -63.867188 57.632812 -60.304688 56.046875 -56.207031 C 54.382812 -51.902344 52.4375 -47.734375 50.214844 -43.707031 L 25.109375 3.15625 L -14.550781 3.15625 L 48.554688 -106.171875 L 51.289062 -104.597656 L 48.152344 -104.246094 L 47.144531 -113.335938 C 46.550781 -118.796875 45.4375 -122.339844 43.808594 -123.972656 C 42.269531 -125.507812 40.050781 -126.277344 37.152344 -126.277344 C 35.570312 -126.277344 34.019531 -126.15625 32.503906 -125.914062 C 30.84375 -125.648438 29.28125 -125.382812 27.824219 -125.117188 L 24.621094 -124.535156 L 20.078125 -154.816406 L 22.859375 -155.511719 C 29.035156 -157.054688 35.617188 -157.828125 42.605469 -157.828125 C 54.855469 -157.828125 64.054688 -154.378906 70.203125 -147.484375 C 76.152344 -140.804688 79.914062 -131.355469 81.476562 -119.132812 L 91.570312 -43.628906 C 92.582031 -36.285156 93.84375 -31.421875 95.347656 -29.050781 C 96.476562 -27.265625 97.945312 -26.375 99.75 -26.375 C 100.550781 -26.375 101.390625 -26.433594 102.261719 -26.550781 C 103.132812 -26.667969 104.238281 -26.90625 105.582031 -27.273438 L 109.570312 -28.363281 L 109.570312 0.851562 L 107.679688 1.679688 C 105.316406 2.710938 102.507812 3.554688 99.257812 4.203125 C 96.023438 4.851562 92.152344 5.175781 87.632812 5.175781 Z M 87.632812 -1.136719 C 91.734375 -1.136719 95.195312 -1.417969 98.019531 -1.984375 C 100.828125 -2.542969 103.203125 -3.25 105.148438 -4.101562 L 106.414062 -1.210938 L 103.257812 -1.210938 L 103.257812 -24.230469 L 106.414062 -24.230469 L 107.242188 -21.1875 C 105.628906 -20.746094 104.242188 -20.449219 103.09375 -20.296875 C 101.945312 -20.144531 100.832031 -20.066406 99.75 -20.066406 C 95.632812 -20.066406 92.386719 -21.933594 90.019531 -25.671875 C 88.023438 -28.816406 86.457031 -34.523438 85.316406 -42.792969 L 75.214844 -118.332031 C 73.820312 -129.261719 70.578125 -137.578125 65.492188 -143.285156 C 60.597656 -148.773438 52.96875 -151.519531 42.605469 -151.519531 C 36.132812 -151.519531 30.0625 -150.808594 24.390625 -149.390625 L 23.625 -152.453125 L 26.746094 -152.921875 L 30.378906 -128.6875 L 27.257812 -128.222656 L 26.695312 -131.324219 C 28.199219 -131.597656 29.800781 -131.871094 31.507812 -132.144531 C 33.355469 -132.441406 35.238281 -132.585938 37.152344 -132.585938 C 41.792969 -132.585938 45.5 -131.203125 48.269531 -128.433594 C 50.945312 -125.753906 52.660156 -120.953125 53.414062 -114.03125 L 54.539062 -103.914062 L -6.355469 1.578125 L -9.085938 0 L -9.085938 -3.15625 L 23.222656 -3.15625 L 23.222656 0 L 20.441406 -1.488281 L 44.6875 -46.753906 C 46.773438 -50.535156 48.597656 -54.445312 50.164062 -58.484375 C 51.808594 -62.734375 53.386719 -66.441406 54.902344 -69.609375 L 59.851562 -79.960938 L 60.890625 -68.535156 C 61.164062 -65.523438 61.40625 -61.671875 61.609375 -56.976562 C 61.804688 -52.449219 62.167969 -48.480469 62.691406 -45.070312 L 65.511719 -25.308594 C 66.769531 -17.015625 69.121094 -10.84375 72.570312 -6.789062 C 75.777344 -3.019531 80.800781 -1.136719 87.632812 -1.136719 Z M 87.632812 -1.136719 "/></g></g></g><g fill="#282828" fill-opacity="1"><g transform="translate(930.384058, 195.631682)"><g><path d="M 20.695312 0.390625 L 6.523438 -113.40625 L 42.027344 -113.40625 L 48.371094 -49.785156 C 48.78125 -45.953125 49.054688 -41.910156 49.191406 -37.660156 C 49.328125 -33.453125 49.394531 -29.851562 49.394531 -26.855469 L 46.242188 -26.855469 L 43.828125 -28.890625 C 52.382812 -39.023438 59.457031 -50.507812 65.054688 -63.351562 C 70.691406 -76.28125 75.507812 -92.132812 79.5 -110.90625 L 80.03125 -113.40625 L 116.652344 -113.40625 L 115.980469 -109.6875 C 112.15625 -88.527344 105.636719 -68.695312 96.414062 -50.183594 C 87.152344 -31.585938 73.417969 -14.078125 55.21875 2.34375 L 54.320312 3.15625 L 21.039062 3.15625 Z M 26.957031 -0.390625 L 23.828125 0 L 23.828125 -3.15625 L 53.105469 -3.15625 L 53.105469 0 L 50.992188 -2.34375 C 68.601562 -18.230469 81.859375 -35.113281 90.765625 -53 C 99.71875 -70.96875 106.054688 -90.242188 109.769531 -110.8125 L 112.875 -110.25 L 112.875 -107.09375 L 82.585938 -107.09375 L 82.585938 -110.25 L 85.671875 -109.59375 C 81.589844 -90.40625 76.644531 -74.152344 70.839844 -60.832031 C 64.996094 -47.425781 57.597656 -35.421875 48.652344 -24.820312 L 43.085938 -18.226562 L 43.085938 -26.855469 C 43.085938 -29.785156 43.019531 -33.316406 42.886719 -37.457031 C 42.753906 -41.550781 42.488281 -45.453125 42.089844 -49.160156 L 36.035156 -109.9375 L 39.171875 -110.25 L 39.171875 -107.09375 L 10.097656 -107.09375 L 10.097656 -110.25 L 13.226562 -110.640625 Z M 26.957031 -0.390625 "/></g></g></g><g clip-path="url(#2f7a35e5b6)"><g fill="#282828" fill-opacity="1"><g transform="translate(1041.439645, 195.631682)"><g><path d="M 47.652344 5.175781 C 34 5.175781 22.878906 2.527344 14.296875 -2.765625 C 5.21875 -8.363281 0.679688 -16.460938 0.679688 -27.058594 C 0.679688 -37.503906 4.046875 -45.367188 10.773438 -50.640625 C 17.121094 -55.617188 25.402344 -58.957031 35.625 -60.660156 L 36.144531 -57.546875 L 32.988281 -57.546875 L 32.988281 -58.355469 L 36.144531 -58.355469 L 34.988281 -55.421875 C 30.085938 -57.351562 25.855469 -60.28125 22.296875 -64.214844 C 18.519531 -68.382812 16.632812 -73.496094 16.632812 -79.558594 C 16.632812 -88.441406 19.058594 -95.574219 23.90625 -100.953125 C 28.609375 -106.171875 34.746094 -109.90625 42.308594 -112.164062 C 49.605469 -114.335938 57.441406 -115.425781 65.828125 -115.425781 C 74.542969 -115.425781 82.28125 -114.65625 89.039062 -113.125 C 95.847656 -111.582031 101.871094 -109.394531 107.105469 -106.5625 L 109.613281 -105.207031 L 98.144531 -77.683594 L 95.140625 -79.144531 C 90.554688 -81.371094 86 -83.238281 81.488281 -84.742188 C 77.167969 -86.183594 72.214844 -86.902344 66.632812 -86.902344 C 61.492188 -86.902344 57.265625 -86.042969 53.949219 -84.328125 C 51.316406 -82.964844 50 -80.769531 50 -77.742188 C 50 -73.246094 55.410156 -71 66.230469 -71 L 83.457031 -71 L 77.667969 -43.894531 L 60.578125 -43.894531 C 53.433594 -43.894531 47.769531 -42.773438 43.59375 -40.53125 C 40.058594 -38.636719 38.289062 -36.03125 38.289062 -32.710938 C 38.289062 -30.003906 39.265625 -28.003906 41.21875 -26.710938 C 43.585938 -25.140625 47.34375 -24.355469 52.5 -24.355469 C 59.964844 -24.355469 66.261719 -25.210938 71.390625 -26.921875 C 76.691406 -28.6875 81.488281 -30.675781 85.785156 -32.890625 L 90.386719 -35.261719 L 90.386719 -3.90625 L 88.640625 -3.035156 C 83.5625 -0.496094 77.699219 1.511719 71.050781 2.980469 C 64.433594 4.441406 56.632812 5.175781 47.652344 5.175781 Z M 47.652344 -1.136719 C 56.175781 -1.136719 63.519531 -1.816406 69.6875 -3.179688 C 75.828125 -4.539062 81.207031 -6.371094 85.820312 -8.675781 L 87.230469 -5.855469 L 84.074219 -5.855469 L 84.074219 -30.085938 L 87.230469 -30.085938 L 88.675781 -27.28125 C 84.089844 -24.917969 78.992188 -22.804688 73.386719 -20.933594 C 67.613281 -19.007812 60.648438 -18.046875 52.5 -18.046875 C 46.078125 -18.046875 41.15625 -19.179688 37.734375 -21.449219 C 33.898438 -23.992188 31.980469 -27.746094 31.980469 -32.710938 C 31.980469 -38.546875 34.855469 -43.007812 40.609375 -46.09375 C 45.71875 -48.832031 52.375 -50.203125 60.578125 -50.203125 L 75.117188 -50.203125 L 75.117188 -47.046875 L 72.03125 -47.707031 L 76.472656 -68.503906 L 79.558594 -67.847656 L 79.558594 -64.691406 L 66.230469 -64.691406 C 59.261719 -64.691406 53.9375 -65.628906 50.257812 -67.507812 C 45.878906 -69.742188 43.691406 -73.15625 43.691406 -77.742188 C 43.691406 -83.328125 46.144531 -87.390625 51.050781 -89.929688 C 55.273438 -92.117188 60.46875 -93.210938 66.632812 -93.210938 C 72.898438 -93.210938 78.515625 -92.382812 83.484375 -90.730469 C 88.257812 -89.136719 93.0625 -87.167969 97.898438 -84.820312 L 96.519531 -81.980469 L 93.605469 -83.195312 L 102.695312 -105 L 105.605469 -103.789062 L 104.105469 -101.011719 C 99.378906 -103.566406 93.890625 -105.554688 87.644531 -106.972656 C 81.34375 -108.398438 74.070312 -109.113281 65.828125 -109.113281 C 58.058594 -109.113281 50.820312 -108.113281 44.113281 -106.117188 C 37.679688 -104.199219 32.503906 -101.070312 28.59375 -96.730469 C 24.828125 -92.550781 22.945312 -86.828125 22.945312 -79.558594 C 22.945312 -75.117188 24.285156 -71.414062 26.972656 -68.449219 C 29.875 -65.246094 33.316406 -62.859375 37.300781 -61.292969 L 39.300781 -60.503906 L 39.300781 -54.875 L 36.664062 -54.4375 C 27.5 -52.910156 20.167969 -49.988281 14.667969 -45.675781 C 9.550781 -41.664062 6.992188 -35.457031 6.992188 -27.058594 C 6.992188 -18.808594 10.53125 -12.5 17.609375 -8.136719 C 25.175781 -3.46875 35.191406 -1.136719 47.652344 -1.136719 Z M 47.652344 -1.136719 "/></g></g></g></g><g fill="#1cabb0" fill-opacity="1"><g transform="translate(0.949193, 195.631682)"><g><path d="M 80.359375 2.828125 C 66.097656 2.828125 53.582031 0.238281 42.8125 -4.9375 C 32.039062 -10.125 23.757812 -17.425781 17.96875 -26.84375 C 12.175781 -36.269531 9.28125 -47.109375 9.28125 -59.359375 C 9.28125 -75.515625 13.015625 -90.050781 20.484375 -102.96875 C 27.960938 -115.894531 38.429688 -125.992188 51.890625 -133.265625 C 65.359375 -140.535156 80.707031 -144.171875 97.9375 -144.171875 C 110.988281 -144.171875 122.5625 -141.847656 132.65625 -137.203125 C 142.757812 -132.554688 150.300781 -125.992188 155.28125 -117.515625 L 126.40625 -94.5 C 119.539062 -105.539062 109.175781 -111.0625 95.3125 -111.0625 C 86.289062 -111.0625 78.347656 -108.941406 71.484375 -104.703125 C 64.617188 -100.460938 59.265625 -94.601562 55.421875 -87.125 C 51.585938 -79.65625 49.671875 -71.273438 49.671875 -61.984375 C 49.671875 -52.429688 52.765625 -44.757812 58.953125 -38.96875 C 65.148438 -33.175781 73.566406 -30.28125 84.203125 -30.28125 C 97.660156 -30.28125 109.171875 -35.734375 118.734375 -46.640625 L 142.359375 -23.421875 C 134.679688 -14.128906 125.726562 -7.429688 115.5 -3.328125 C 105.269531 0.773438 93.554688 2.828125 80.359375 2.828125 Z M 80.359375 2.828125 "/></g></g></g><g fill="#1cabb0" fill-opacity="1"><g transform="translate(149.965696, 195.631682)"><g><path d="M 91.671875 -111.265625 C 103.515625 -111.265625 113.070312 -108.03125 120.34375 -101.5625 C 127.613281 -95.101562 131.25 -85.816406 131.25 -73.703125 C 131.25 -69.253906 130.773438 -64.878906 129.828125 -60.578125 L 117.71875 0 L 79.359375 0 L 90.65625 -56.9375 C 91.195312 -59.226562 91.46875 -61.65625 91.46875 -64.21875 C 91.46875 -73.90625 86.421875 -78.75 76.328125 -78.75 C 69.597656 -78.75 64.078125 -76.695312 59.765625 -72.59375 C 55.460938 -68.488281 52.4375 -62.328125 50.6875 -54.109375 L 39.78125 0 L 1.40625 0 L 31.296875 -149.828125 L 69.65625 -149.828125 L 59.765625 -100.359375 C 69.054688 -107.628906 79.691406 -111.265625 91.671875 -111.265625 Z M 91.671875 -111.265625 "/></g></g></g><g fill="#1cabb0" fill-opacity="1"><g transform="translate(290.50156, 195.631682)"><g><path d="M 38.96875 2.015625 C 30.21875 2.015625 23.015625 -1.210938 17.359375 -7.671875 C 11.710938 -14.128906 8.890625 -24.226562 8.890625 -37.96875 C 8.890625 -52.09375 11.078125 -64.773438 15.453125 -76.015625 C 19.828125 -87.265625 25.914062 -96.117188 33.71875 -102.578125 C 41.53125 -109.035156 50.550781 -112.265625 60.78125 -112.265625 C 67.914062 -112.265625 73.363281 -110.648438 77.125 -107.421875 C 80.894531 -104.191406 84.128906 -100.15625 86.828125 -95.3125 L 87.640625 -95.3125 C 88.710938 -97.457031 90.125 -100.007812 91.875 -102.96875 C 93.625 -105.9375 95.441406 -108.363281 97.328125 -110.25 L 122.359375 -110.25 C 120.078125 -105.9375 117.285156 -99.8125 113.984375 -91.875 C 110.679688 -83.9375 108.09375 -75.457031 106.21875 -66.4375 L 99.546875 -34.9375 C 99.140625 -32.914062 98.9375 -31.164062 98.9375 -29.6875 C 98.9375 -25.375 100.957031 -23.21875 105 -23.21875 C 106.070312 -23.21875 107.210938 -23.351562 108.421875 -23.625 C 109.640625 -23.894531 110.648438 -24.164062 111.453125 -24.4375 L 111.453125 -1.015625 C 109.972656 -0.335938 107.820312 0.332031 105 1 C 102.175781 1.675781 98.878906 2.015625 95.109375 2.015625 C 88.910156 2.015625 83.722656 0.738281 79.546875 -1.8125 C 75.378906 -4.375 72.554688 -8.550781 71.078125 -14.34375 L 70.265625 -14.34375 C 66.628906 -10.03125 62.488281 -6.222656 57.84375 -2.921875 C 53.207031 0.367188 46.914062 2.015625 38.96875 2.015625 Z M 52.09375 -22.015625 C 57.476562 -22.015625 61.953125 -24.398438 65.515625 -29.171875 C 69.085938 -33.953125 71.882812 -40.046875 73.90625 -47.453125 C 74.976562 -50.953125 75.882812 -54.851562 76.625 -59.15625 C 77.363281 -63.46875 77.734375 -67.375 77.734375 -70.875 C 77.734375 -76.125 76.691406 -80.328125 74.609375 -83.484375 C 72.523438 -86.648438 69.328125 -88.234375 65.015625 -88.234375 C 61.109375 -88.234375 57.570312 -86.820312 54.40625 -84 C 51.25 -81.175781 48.523438 -77.40625 46.234375 -72.6875 C 43.953125 -67.976562 42.171875 -62.828125 40.890625 -57.234375 C 39.609375 -51.648438 38.96875 -46.164062 38.96875 -40.78125 C 38.96875 -28.269531 43.34375 -22.015625 52.09375 -22.015625 Z M 52.09375 -22.015625 "/></g></g></g><g fill="#1cabb0" fill-opacity="1"><g transform="translate(412.864705, 195.631682)"><g><path d="M 38.15625 2.015625 C 29.40625 2.015625 22.4375 0.164062 17.25 -3.53125 C 12.070312 -7.238281 9.484375 -13.867188 9.484375 -23.421875 C 9.484375 -25.035156 9.617188 -26.988281 9.890625 -29.28125 C 10.160156 -31.570312 10.769531 -34.800781 11.71875 -38.96875 L 26.859375 -110.25 L 56.53125 -110.25 L 41.1875 -37.15625 C 40.382812 -33.382812 39.984375 -30.691406 39.984375 -29.078125 C 39.984375 -24.367188 42.8125 -22.015625 48.46875 -22.015625 C 51.15625 -22.015625 53.707031 -22.316406 56.125 -22.921875 C 58.550781 -23.523438 61.3125 -24.363281 64.40625 -25.4375 L 64.40625 -3.234375 C 61.3125 -1.753906 57.539062 -0.507812 53.09375 0.5 C 48.65625 1.507812 43.675781 2.015625 38.15625 2.015625 Z M 38.15625 2.015625 "/></g></g></g><g fill="#1cabb0" fill-opacity="1"><g transform="translate(486.969131, 195.631682)"><g><path d="M 56.34375 48.46875 L 80.15625 -64.40625 C 81.238281 -69.125 81.78125 -73.03125 81.78125 -76.125 C 81.78125 -84.195312 78.210938 -88.234375 71.078125 -88.234375 C 66.503906 -88.234375 62.429688 -86.316406 58.859375 -82.484375 C 55.296875 -78.648438 52.203125 -73.5 49.578125 -67.03125 C 46.953125 -60.570312 44.765625 -53.441406 43.015625 -45.640625 L 33.3125 0 L 3.640625 0 L 27.0625 -110.25 L 49.46875 -110.25 L 47.453125 -89.859375 L 48.265625 -89.859375 C 52.429688 -96.453125 57.375 -101.832031 63.09375 -106 C 68.820312 -110.175781 75.519531 -112.265625 83.1875 -112.265625 C 92.613281 -112.265625 99.710938 -109.40625 104.484375 -103.6875 C 109.265625 -97.96875 111.65625 -90.257812 111.65625 -80.5625 C 111.65625 -75.71875 110.914062 -69.796875 109.4375 -62.796875 L 86.015625 48.46875 Z M 56.34375 48.46875 "/></g></g></g><g fill="#1cabb0" fill-opacity="1"><g transform="translate(608.928438, 195.631682)"><g><path d="M 1.8125 40.984375 C -9.351562 40.984375 -17.898438 39.101562 -23.828125 35.34375 L -9.09375 8.28125 C -6.125 10.4375 -2.625 11.515625 1.40625 11.515625 C 5.039062 11.515625 8.171875 10.300781 10.796875 7.875 C 13.421875 5.445312 15.273438 1.8125 16.359375 -3.03125 L 37.5625 -109.03125 C 40.382812 -123.300781 46.203125 -134.140625 55.015625 -141.546875 C 63.835938 -148.953125 75.585938 -152.65625 90.265625 -152.65625 C 95.378906 -152.65625 100.222656 -152.148438 104.796875 -151.140625 C 109.367188 -150.128906 113.070312 -148.679688 115.90625 -146.796875 L 101.359375 -119.734375 C 98.128906 -121.890625 94.5625 -122.96875 90.65625 -122.96875 C 86.894531 -122.96875 83.703125 -121.789062 81.078125 -119.4375 C 78.453125 -117.082031 76.734375 -113.484375 75.921875 -108.640625 L 54.71875 -2.421875 C 51.894531 11.984375 46.207031 22.816406 37.65625 30.078125 C 29.113281 37.347656 17.164062 40.984375 1.8125 40.984375 Z M 1.8125 40.984375 "/></g></g></g><g fill="#1cabb0" fill-opacity="1"><g transform="translate(700.801757, 195.631682)"><g><path d="M 51.09375 2.015625 C 42.875 2.015625 35.566406 0.300781 29.171875 -3.125 C 22.785156 -6.5625 17.804688 -11.441406 14.234375 -17.765625 C 10.671875 -24.097656 8.890625 -31.640625 8.890625 -40.390625 C 8.890625 -50.078125 10.097656 -59.257812 12.515625 -67.9375 C 14.941406 -76.625 18.578125 -84.300781 23.421875 -90.96875 C 28.265625 -97.632812 34.351562 -102.847656 41.6875 -106.609375 C 49.03125 -110.378906 57.613281 -112.265625 67.4375 -112.265625 C 80.226562 -112.265625 90.390625 -108.425781 97.921875 -100.75 C 105.460938 -93.082031 109.234375 -82.382812 109.234375 -68.65625 C 109.234375 -59.363281 108.085938 -50.476562 105.796875 -42 C 103.515625 -33.519531 99.984375 -25.976562 95.203125 -19.375 C 90.421875 -12.78125 84.363281 -7.566406 77.03125 -3.734375 C 69.695312 0.0976562 61.050781 2.015625 51.09375 2.015625 Z M 53.515625 -22.21875 C 59.023438 -22.21875 63.695312 -24.4375 67.53125 -28.875 C 71.375 -33.3125 74.304688 -39.0625 76.328125 -46.125 C 78.347656 -53.195312 79.359375 -60.707031 79.359375 -68.65625 C 79.359375 -74.175781 78.3125 -78.785156 76.21875 -82.484375 C 74.132812 -86.179688 70.46875 -88.03125 65.21875 -88.03125 C 60.78125 -88.03125 56.878906 -86.515625 53.515625 -83.484375 C 50.148438 -80.460938 47.390625 -76.523438 45.234375 -71.671875 C 43.078125 -66.828125 41.457031 -61.644531 40.375 -56.125 C 39.300781 -50.613281 38.765625 -45.367188 38.765625 -40.390625 C 38.765625 -28.273438 43.679688 -22.21875 53.515625 -22.21875 Z M 53.515625 -22.21875 "/></g></g></g><g fill="#1cabb0" fill-opacity="1"><g transform="translate(818.924575, 195.631682)"><g><path d="M 87.640625 2.015625 C 79.828125 2.015625 74 -0.238281 70.15625 -4.75 C 66.320312 -9.257812 63.734375 -15.957031 62.390625 -24.84375 L 59.5625 -44.625 C 59.03125 -48.125 58.660156 -52.195312 58.453125 -56.84375 C 58.253906 -61.488281 58.019531 -65.289062 57.75 -68.25 C 56.269531 -65.15625 54.722656 -61.519531 53.109375 -57.34375 C 51.492188 -53.175781 49.609375 -49.140625 47.453125 -45.234375 L 23.21875 0 L -9.09375 0 L 51.28125 -104.59375 L 50.28125 -113.6875 C 49.601562 -119.875 48.1875 -124.046875 46.03125 -126.203125 C 43.882812 -128.359375 40.925781 -129.4375 37.15625 -129.4375 C 35.40625 -129.4375 33.6875 -129.300781 32 -129.03125 C 30.320312 -128.757812 28.742188 -128.488281 27.265625 -128.21875 L 23.625 -152.453125 C 29.550781 -153.929688 35.878906 -154.671875 42.609375 -154.671875 C 53.910156 -154.671875 62.320312 -151.570312 67.84375 -145.375 C 73.363281 -139.1875 76.863281 -130.304688 78.34375 -118.734375 L 88.4375 -43.21875 C 89.519531 -35.40625 90.9375 -30.117188 92.6875 -27.359375 C 94.4375 -24.597656 96.789062 -23.21875 99.75 -23.21875 C 100.6875 -23.21875 101.660156 -23.285156 102.671875 -23.421875 C 103.679688 -23.554688 104.925781 -23.828125 106.40625 -24.234375 L 106.40625 -1.21875 C 104.257812 -0.269531 101.671875 0.503906 98.640625 1.109375 C 95.609375 1.710938 91.941406 2.015625 87.640625 2.015625 Z M 87.640625 2.015625 "/></g></g></g><g fill="#1cabb0" fill-opacity="1"><g transform="translate(930.384058, 195.631682)"><g><path d="M 23.828125 0 L 10.09375 -110.25 L 39.171875 -110.25 L 45.234375 -49.46875 C 45.640625 -45.695312 45.90625 -41.722656 46.03125 -37.546875 C 46.164062 -33.378906 46.234375 -29.816406 46.234375 -26.859375 C 54.984375 -37.222656 62.21875 -48.96875 67.9375 -62.09375 C 73.664062 -75.21875 78.550781 -91.269531 82.59375 -110.25 L 112.875 -110.25 C 109.101562 -89.382812 102.675781 -69.832031 93.59375 -51.59375 C 84.507812 -33.351562 71.015625 -16.15625 53.109375 0 Z M 23.828125 0 "/></g></g></g><g fill="#1cabb0" fill-opacity="1"><g transform="translate(1041.439645, 195.631682)"><g><path d="M 47.65625 2.015625 C 34.59375 2.015625 24.023438 -0.472656 15.953125 -5.453125 C 7.878906 -10.429688 3.84375 -17.632812 3.84375 -27.0625 C 3.84375 -36.476562 6.800781 -43.507812 12.71875 -48.15625 C 18.644531 -52.800781 26.453125 -55.929688 36.140625 -57.546875 L 36.140625 -58.359375 C 31.703125 -60.109375 27.863281 -62.765625 24.625 -66.328125 C 21.394531 -69.898438 19.78125 -74.3125 19.78125 -79.5625 C 19.78125 -87.632812 21.9375 -94.0625 26.25 -98.84375 C 30.5625 -103.625 36.21875 -107.054688 43.21875 -109.140625 C 50.21875 -111.222656 57.753906 -112.265625 65.828125 -112.265625 C 74.304688 -112.265625 81.8125 -111.523438 88.34375 -110.046875 C 94.875 -108.566406 100.628906 -106.476562 105.609375 -103.78125 L 96.515625 -81.984375 C 91.804688 -84.265625 87.128906 -86.179688 82.484375 -87.734375 C 77.835938 -89.285156 72.554688 -90.0625 66.640625 -90.0625 C 60.984375 -90.0625 56.269531 -89.082031 52.5 -87.125 C 48.726562 -85.175781 46.84375 -82.046875 46.84375 -77.734375 C 46.84375 -71.140625 53.304688 -67.84375 66.234375 -67.84375 L 79.5625 -67.84375 L 75.109375 -47.046875 L 60.578125 -47.046875 C 52.898438 -47.046875 46.738281 -45.800781 42.09375 -43.3125 C 37.457031 -40.820312 35.140625 -37.289062 35.140625 -32.71875 C 35.140625 -25.039062 40.925781 -21.203125 52.5 -21.203125 C 60.3125 -21.203125 66.941406 -22.109375 72.390625 -23.921875 C 77.835938 -25.742188 82.785156 -27.800781 87.234375 -30.09375 L 87.234375 -5.859375 C 82.390625 -3.429688 76.769531 -1.507812 70.375 -0.09375 C 63.976562 1.3125 56.40625 2.015625 47.65625 2.015625 Z M 47.65625 2.015625 "/></g></g></g></g></g></svg>